<svg fill="currentColor" width="207" height="207" viewBox="0 0 207 207" fill="none" xmlns="http://www.w3.org/2000/svg">
<path d="M133.481 103.493C133.481 120.055 120.055 133.481 103.493 133.481C86.9306 133.481 73.5045 120.055 73.5045 103.493C73.5045 86.9306 86.9306 73.5045 103.493 73.5045C120.055 73.5045 133.481 86.9306 133.481 103.493Z" fill="#FF005C"/>
<path d="M96.7211 148.958C96.7211 148.958 96.7211 143.154 103.493 143.154C110.264 143.154 110.264 148.958 110.264 148.958V201.196C110.264 201.196 110.264 207 103.493 207C96.7211 207 96.7211 201.196 96.7211 201.196V148.958Z" fill="#FF005C"/>
<path d="M148.958 110.264C148.958 110.264 143.154 110.264 143.154 103.493C143.154 96.7211 148.958 96.7211 148.958 96.7211H201.196C201.196 96.7211 207 96.7211 207 103.493C207 110.264 201.196 110.264 201.196 110.264H148.958Z" fill="#FF005C"/>
<path d="M136.103 140.948C136.103 140.948 133.481 138.103 137.037 134.824C140.593 131.546 143.216 134.391 143.216 134.391L161.574 154.306C161.574 154.306 164.197 157.152 160.641 160.43C157.084 163.708 154.462 160.863 154.462 160.863L136.103 140.948Z" fill="#FF005C"/>
<path d="M62.9047 136.396C62.9047 136.396 65.4491 133.481 69.0931 136.661C72.737 139.842 70.1926 142.757 70.1926 142.757L52.3813 163.163C52.3813 163.163 49.8368 166.078 46.1928 162.898C42.5489 159.717 45.0933 156.802 45.0933 156.802L62.9047 136.396Z" fill="#FF005C"/>
<path d="M110.39 58.0267C110.39 58.0267 110.403 63.8309 103.631 63.8456C96.86 63.8603 96.8474 58.0561 96.8474 58.0561L96.7341 5.81886C96.7341 5.81886 96.7215 0.0147187 103.493 2.7841e-05C110.264 -0.014663 110.277 5.78948 110.277 5.78948L110.39 58.0267Z" fill="#FF005C"/>
<path d="M58.0267 96.7337C58.0267 96.7337 63.8309 96.7211 63.8456 103.493C63.8603 110.264 58.0561 110.277 58.0561 110.277L5.81886 110.39C5.81886 110.39 0.0147187 110.403 2.7841e-05 103.631C-0.014663 96.8596 5.78948 96.847 5.78948 96.847L58.0267 96.7337Z" fill="#FF005C"/>
<path d="M68.7426 65.2639C68.7426 65.2639 71.3714 68.1032 67.8222 71.3892C64.273 74.6752 61.6442 71.8358 61.6442 71.8358L43.2426 51.9603C43.2426 51.9603 40.6138 49.121 44.163 45.835C47.7122 42.549 50.341 45.3883 50.341 45.3883L68.7426 65.2639Z" fill="#FF005C"/>
<path d="M142.093 72.4547C142.093 72.4547 139.555 75.3754 135.904 72.2027C132.253 69.0301 134.791 66.1094 134.791 66.1094L152.558 45.6646C152.558 45.6646 155.097 42.7439 158.747 45.9166C162.398 49.0893 159.86 52.01 159.86 52.01L142.093 72.4547Z" fill="#FF005C"/>
</svg>
